<?xml version="1.0" standalone="no"?>
<!DOCTYPE svg PUBLIC "-//W3C//DTD SVG 20010904//EN"
 "http://www.w3.org/TR/2001/REC-SVG-20010904/DTD/svg10.dtd">
<svg version="1.0" xmlns="http://www.w3.org/2000/svg"
 width="16.000000pt" height="16.000000pt" viewBox="0 0 16.000000 16.000000"
 preserveAspectRatio="xMidYMid meet">
<metadata>
Created by potrace 1.11, written by Peter Selinger 2001-2013
</metadata>
<g transform="translate(0.000000,16.000000) scale(0.007619,-0.007619)"
fill="#000000" stroke="none">
<path d="M1278 1889 c-10 -10 -18 -24 -18 -30 0 -5 -4 -7 -10 -4 -5 3 -10 1
-10 -5 0 -13 -158 -170 -171 -170 -19 0 -57 -43 -52 -57 3 -8 2 -18 -4 -22 -5
-3 -19 -26 -31 -51 -23 -49 -55 -90 -69 -90 -5 0 -9 -18 -8 -40 0 -22 2 -40 5
-40 3 0 5 -34 5 -75 -1 -41 1 -75 4 -75 4 0 6 -19 6 -43 0 -23 2 -46 5 -52 2
-5 5 -14 6 -20 2 -5 7 -34 13 -64 13 -65 21 -76 58 -79 15 -1 49 -7 75 -13
l47 -11 -22 -23 c-12 -13 -51 -56 -87 -96 -36 -40 -69 -76 -75 -80 -5 -5 -28
-24 -50 -44 -22 -19 -43 -35 -47 -35 -4 0 -13 -6 -20 -12 -8 -7 -48 -30 -90
-51 -43 -21 -80 -46 -83 -55 -5 -15 -47 -47 -113 -87 -10 -5 -19 -13 -22 -16
-6 -7 -119 -69 -126 -69 -10 0 4 56 23 90 22 38 24 121 4 128 -6 2 -11 9 -11
15 0 13 -77 87 -91 87 -5 0 -9 4 -9 10 0 10 -60 28 -118 36 -20 2 -54 7 -75
10 l-38 5 16 -25 c9 -14 18 -35 19 -48 5 -39 29 -108 38 -108 4 0 8 -5 8 -11
0 -6 6 -16 13 -24 7 -7 24 -26 38 -42 24 -29 89 -79 89 -69 0 3 10 2 23 -3 14
-5 30 -5 40 0 13 8 17 6 17 -6 0 -26 -29 -75 -45 -75 -8 0 -15 -4 -15 -9 0 -5
-12 -12 -27 -16 -16 -3 -57 -20 -93 -38 -36 -17 -68 -30 -72 -29 -5 1 -8 -2
-8 -7 0 -7 -37 -20 -72 -25 -9 -1 -11 -12 -6 -28 4 -12 133 27 159 49 8 7 20
13 25 13 5 0 25 8 44 19 19 10 38 19 43 20 7 1 11 2 25 5 29 8 271 154 292
176 3 3 17 11 33 19 15 8 27 18 27 23 0 4 6 8 14 8 7 0 25 9 39 20 14 11 29
20 34 20 4 0 17 -21 27 -47 24 -57 76 -110 136 -136 54 -24 187 -31 225 -11
13 7 26 10 28 7 3 -2 21 3 41 11 20 8 39 15 41 16 3 0 6 1 8 1 1 1 22 3 45 4
49 4 66 13 37 21 -11 3 -36 26 -55 51 -62 79 -180 183 -180 157 0 -4 -7 -1
-15 6 -8 7 -15 9 -15 5 0 -4 -6 -3 -12 2 -13 9 -61 16 -126 17 -23 1 -32 5
-29 16 2 8 9 14 15 13 7 -2 12 1 12 5 0 13 68 81 74 74 3 -3 6 0 6 6 0 6 20
33 45 59 24 26 45 51 45 56 0 4 6 7 13 7 6 0 13 -12 14 -26 2 -40 45 -77 91
-80 21 -1 49 -5 62 -9 14 -5 36 -9 50 -10 14 -1 30 -4 35 -7 6 -3 35 -11 65
-17 30 -6 66 -14 80 -17 14 -3 39 -8 55 -11 17 -3 32 -8 35 -11 3 -4 14 -8 24
-10 20 -4 102 77 134 130 9 15 22 28 29 28 7 0 13 3 13 8 0 10 90 48 123 51
23 2 47 25 52 51 10 51 17 107 21 155 1 28 6 88 10 135 3 47 8 127 10 179 l3
94 -39 38 c-21 21 -50 45 -64 54 -23 15 -53 75 -38 75 4 0 3 4 -3 8 -5 4 -15
16 -21 27 -9 16 -23 20 -67 22 -43 1 -62 7 -79 23 -13 12 -40 33 -60 46 -35
22 -39 23 -72 9 -46 -19 -65 -19 -107 2 -19 10 -43 19 -54 20 -11 2 -21 8 -23
13 -2 6 -14 10 -27 10 -13 0 -26 4 -29 8 -10 16 -71 11 -88 -9z"/>
</g>
</svg>
