<svg id="Layer_1" data-name="Layer 1" xmlns="http://www.w3.org/2000/svg" viewBox="0 0 32.8 32.8"><title>ig-icon-red</title><path d="M16.4,0h6.7a9.7,9.7,0,0,1,9.5,7.8,11,11,0,0,1,.2,2.2V22.7a9.8,9.8,0,0,1-9.6,10H10A9.8,9.8,0,0,1,0,23.1q0-.2,0-0.4V9.9A9.8,9.8,0,0,1,9.6-.1h6.8V0ZM29.5,16.4V10.1a7.5,7.5,0,0,0-.1-1.4A6.4,6.4,0,0,0,23,3.4H10A6.5,6.5,0,0,0,3.3,9.69q0,0.2,0,.41V22.8a6.5,6.5,0,0,0,6.29,6.7H22.7a6.5,6.5,0,0,0,6.7-6.29q0-.2,0-0.41C29.5,20.6,29.5,18.5,29.5,16.4Z" transform="translate(0 0.1)" fill="red"/><path d="M24.9,16.4a8.5,8.5,0,1,1-8.5-8.5h0.1A8.5,8.5,0,0,1,24.9,16.4Zm-3.3,0a5.2,5.2,0,1,0-5.2,5.2,5.2,5.2,0,0,0,5.2-5.2h0Z" transform="translate(0 0.1)" fill="red"/><path d="M26.9,8a2,2,0,1,1-2-2A2,2,0,0,1,26.9,8Z" transform="translate(0 0.1)" fill="red"/></svg>