<svg id="Layer_1" data-name="Layer 1" xmlns="http://www.w3.org/2000/svg" viewBox="0 0 36.75 31.22"><title>snapchat-icon-black</title><path d="M329.49,223.08a9.07,9.07,0,0,1,3.44,3.53,5.56,5.56,0,0,1,.71,2.53c0,0.88.08,1.76,0.08,2.65,0,0.69-.07,1.37-0.12,2.06a4.05,4.05,0,0,1-.1.5,2.28,2.28,0,0,0,1.24,0c0.29-.08.56-0.2,0.85-0.3a2.43,2.43,0,0,1,2.46.73,1.13,1.13,0,0,1,0,1.34,4,4,0,0,1-1.85,1.09,15.6,15.6,0,0,0-1.76.64,0.87,0.87,0,0,0-.48,1.35,10.62,10.62,0,0,0,4,4.47,9.68,9.68,0,0,0,3.07,1.19,3.27,3.27,0,0,1,.49.12,0.77,0.77,0,0,1,.38,1.14,2.22,2.22,0,0,1-1.37,1,15.92,15.92,0,0,1-3.3.77c-0.29,0-.24.26-0.29,0.43-0.11.36-.17,0.73-0.3,1.08a1.09,1.09,0,0,1-1.24.6c-0.79-.1-1.58-0.23-2.37-0.26a6,6,0,0,0-3.62,1,26.56,26.56,0,0,1-2.61,1.48,7.51,7.51,0,0,1-1.49.45,9,9,0,0,1-2.91.09,5.36,5.36,0,0,1-1.89-.54c-1-.5-2-1.11-3-1.68a4.42,4.42,0,0,0-2.05-.71c-0.46,0-.92-0.09-1.38-0.08s-0.93.14-1.4,0.16a2.81,2.81,0,0,1-1.47.06,1,1,0,0,1-.62-0.66c-0.12-.43-0.24-0.85-0.37-1.27a0.31,0.31,0,0,0-.2-0.15c-1-.22-1.91-0.39-2.85-0.64a2.88,2.88,0,0,1-1.78-1.1,0.89,0.89,0,0,1,.72-1.32,7.89,7.89,0,0,0,2.93-1,10.4,10.4,0,0,0,3.76-3.76,4.26,4.26,0,0,0,.52-1.09,1,1,0,0,0-.8-1.28c-0.71-.26-1.43-0.47-2.13-0.74a2.56,2.56,0,0,1-1.27-.92,1.09,1.09,0,0,1,.2-1.46,2.36,2.36,0,0,1,2.09-.53,5.88,5.88,0,0,1,.82.27,2.7,2.7,0,0,0,1.36.09c0-.52,0-1,0-1.53,0-1.14-.11-2.28-0.06-3.42a7,7,0,0,1,.4-2,7.9,7.9,0,0,1,1.64-2.58,9,9,0,0,1,3.57-2.42,18.09,18.09,0,0,1,2-.54,12.17,12.17,0,0,1,3.79-.2,9.68,9.68,0,0,1,3.19.76c0.3,0.13.58,0.28,0.87,0.4" transform="translate(-305.2 -221.58)"/></svg>