<svg id="Layer_1" data-name="Layer 1" xmlns="http://www.w3.org/2000/svg" viewBox="0 0 32 26.47"><title>twitter-icon-red</title><path d="M0,23.6a13.4,13.4,0,0,0,9.6-2.8,6.7,6.7,0,0,1-6.1-4.7A6.8,6.8,0,0,0,6.4,16,6.7,6.7,0,0,1,1.3,9.4a7.5,7.5,0,0,0,2.5.8H4.2a6.8,6.8,0,0,1-2-8.9,18.6,18.6,0,0,0,13.5,7v-1A6.6,6.6,0,0,1,21.1.2,6.3,6.3,0,0,1,26.9,2h0.4A13,13,0,0,0,31,.6h0.2a6.9,6.9,0,0,1-2.8,3.6A14.6,14.6,0,0,0,32,3.3L31.1,4.5a12.3,12.3,0,0,1-2.1,2,0.4,0.4,0,0,0-.2.4,19.5,19.5,0,0,1-3.4,11.7,17.4,17.4,0,0,1-11.6,7.6A18.3,18.3,0,0,1,.5,23.7Z" transform="translate(0 -0.07)" fill="red"/></svg>