<svg id="Layer_1" data-name="Layer 1" xmlns="http://www.w3.org/2000/svg" viewBox="0 0 31.9 26.5"><title>twitter-icon-black</title><path d="M214.1,248.6a13.4,13.4,0,0,0,9.6-2.8,6.7,6.7,0,0,1-6.1-4.7,6.8,6.8,0,0,0,2.9-.1,6.7,6.7,0,0,1-5.1-6.6,7.5,7.5,0,0,0,2.5.8h0.4a6.8,6.8,0,0,1-2-8.9,18.6,18.6,0,0,0,13.5,7v-1a6.6,6.6,0,0,1,5.4-7.1,6.3,6.3,0,0,1,5.8,1.8h0.4a13,13,0,0,0,3.7-1.4h0.2a6.9,6.9,0,0,1-2.8,3.6,14.6,14.6,0,0,0,3.6-.9l-0.9,1.2a12.3,12.3,0,0,1-2.1,2,0.4,0.4,0,0,0-.2.4,19.5,19.5,0,0,1-3.4,11.7,17.4,17.4,0,0,1-11.6,7.6,18.3,18.3,0,0,1-13.3-2.5Z" transform="translate(-214.1 -225)"/></svg>