<svg xmlns="http://www.w3.org/2000/svg" xmlns:xlink="http://www.w3.org/1999/xlink" viewBox="0 0 291.72 65.43"><title>cr-logo</title><path d="M266.68,34.73q-1.41.85-.71-0.07a11.28,11.28,0,0,1,.84-2.49,18.58,18.58,0,0,1,3.44-5.39,2,2,0,0,0,.34-0.53,6.36,6.36,0,0,0,.61,4.47c-1.62,2-3.72,4-4.52,4m-22.11,4a2.6,2.6,0,0,1-1-.85,18.48,18.48,0,0,0,2.51.56c-0.19.47-.61,0.68-1.55,0.29m2.35-7.76c-0.21,1.24-.34,2.48-0.45,3.73a15.22,15.22,0,0,1-3.28-.92q1.94-1.33,3.74-2.84v0m-20.59,5.21c-0.13,0-.27,0-0.39-0.09A5.35,5.35,0,0,1,224,34.79c0.85-.72,1.71-1.45,2.56-2.18a33,33,0,0,0-.25,3.54m62.13-14.38a36.17,36.17,0,0,1-7.91,4.92,20.5,20.5,0,0,1-4,1.41c0.63-2.51,0-4.76-3-5.81a1.82,1.82,0,0,0-2,.91,11.82,11.82,0,0,0-.81,2.3A1.87,1.87,0,0,0,268,23.91c-4.09,2.15-7.07,5.62-10.84,8.23a14.92,14.92,0,0,1-7,2.65c0.37-3.68,1-7.25,3.13-10.25,0.37-.45.75-0.89,1.11-1.36,1.43-1.84-1-4.31-2.64-2.56a16.85,16.85,0,0,0-1.46,1.79,45.17,45.17,0,0,1-10.39,9.14,43.14,43.14,0,0,1-7.29,3.7A16.74,16.74,0,0,1,230,36c0.29-5.49,2.15-8.35,6.27-11.8,1.8-1.52-.85-4.06-2.64-2.56l-1.2,1c-3.68,3.15-7.32,6.4-11,9.54a1.92,1.92,0,0,0-2.41,2c-2.63,2.14-5.32,4.21-8.11,6.1,0.6-4.48,1.47-9.21,3.68-12.82,1.26-2.05-1.89-3.71-3.2-1.78a48.21,48.21,0,0,1-7,7.9A33.44,33.44,0,0,1,200,37.54c0.69-4.5,3.73-9.43,5.85-12.88,1.24-2-2-3.81-3.2-1.78-2.82,4.59-7,11.83-6.39,17.5a1.87,1.87,0,0,0,2.31,1.77c3.08-.55,5.1-2.86,7.33-4.9,0.73-.67,1.44-1.35,2.14-2-0.54,2.81-.86,5.67-1.2,8.33-0.19,1.52,1.24,2.94,2.71,2A100.53,100.53,0,0,0,220.1,38c1.54,4.06,4.45,9,8.22,6.21,1.34-1,1.65-2.58,1.69-4.21a30.63,30.63,0,0,0,6.66-2.53c0.72-.33,1.42-0.7,2.12-1.07,1.72,3.69,5.29,9.15,9.06,6.43,1.36-1,1.75-2.63,1.93-4.25A17.13,17.13,0,0,0,255,37.49a26.76,26.76,0,0,0,7.59-5,7.9,7.9,0,0,0-.27,3.17c0.46,3.28,3.24,3.45,5.83,2.48,1.9-.71,4.52-3.07,6.39-5.79l0.32,0c5.61,0,12.14-4.74,16.26-8.08,1.83-1.48-.83-4-2.64-2.56" transform="translate(0 0)" fill="#ff141b"/><path d="M87.73,6.17c0.16,2.43-.86,5.41-2.29,8.34l2.29-8.34M135.12,48l-12.19-12.4c-2-2.06-4.24-5.22-7.47-4.15-4.78,1.59-6.58,7.85-10.26,11,0.91-4.27,4.12-8.26,3.73-12.78a1.61,1.61,0,0,0-2.78-1c-4,4.68-8.88,8.39-13.35,12.57,1.09-3,2.17-6,2-9.31a1.6,1.6,0,0,0-3-.62c-3.12,5.2-9,7.53-14,10.85q2.31-8.31,4.6-16.62c0.9-1.38,1.77-2.78,2.61-4.21C88.16,15.95,94,6.12,88.36.43a1.56,1.56,0,0,0-2.57.87q-3.16,11.52-6.33,23l-0.59.88C75.39,30.53,71.52,35.6,68,40.86c0.51-4.13,1.22-8.23,1.33-12.41,0-1.65-2.34-2-3-.62L60.25,40c-0.43.86-3.8,7.21-4.33,6.12-0.38-.79,1-3.36,1.21-4.21,0.69-2.32.44-5.89-2.75-3.86-3.63,2.31-5.68,7.35-9,10.16-4,3.36-2.75-2-1.27-4.48a39.81,39.81,0,0,1,9-9.89c1.57-1.27-.23-3.94-1.78-2.68-4.25,3.44-14.92,12.58-11.7,19.26,3.06,6.33,9.47-1.26,11.82-4.05,0.45-.53.88-1.07,1.31-1.61a5.39,5.39,0,0,0,.49,3.4c3.52,4.66,8.46-3.26,11.93-10.29a86.13,86.13,0,0,0-.92,9.25c0,1.75,2.28,1.83,3,.62,2.94-4.87,6.28-9.47,9.57-14.11q-1.74,6.29-3.49,12.58c-0.45,1.62,1.76,2.41,2.76,1.38C80.48,43.14,86.48,41,91,37c-0.91,3.23-2.53,6.35-3.08,9.67a1.62,1.62,0,0,0,2.76,1.38c4.3-5,9.66-9,14.39-13.58-1.24,3.6-3.55,7.08-3.22,10.95A1.64,1.64,0,0,0,104,46.9c4.17-1.53,6.73-6.61,9.58-9.75,1.27-1.39,1.84-2.41,3.71-2,2.17,0.49,3.94,3.14,5.48,4.7l10.36,10.54c1.45,1.47,3.47-.91,2-2.38" transform="translate(0 0)" fill="#ff141b"/><path d="M97,27.77c2.06,0,1.75-3.19-.26-3.19S95,27.77,97,27.77" transform="translate(0 0)" fill="#ff141b"/><path d="M69.51,19.56c2.05,0,1.65-3.15-.3-3.15s-1.65,3.15.3,3.15" transform="translate(0 0)" fill="#ff141b"/><path d="M33.77,42.86A82.16,82.16,0,0,1,22,54.5c-3.79,3-8.81,7.36-13.83,7.68-4,.26-5.08-4.53-4.94-7.8a44.16,44.16,0,0,1,1-7.33A51,51,0,0,1,9.46,33.33,69.75,69.75,0,0,1,28.78,11.58,50.94,50.94,0,0,1,34.84,7.5a16.36,16.36,0,0,1,3.92-1.65c4.8-1.14,5.26,1.62,3.13,4.86C38.74,15.5,35.49,20.23,32.3,25c-1.1,1.64,1.3,3.78,2.41,2.13l7.68-11.42C44,13.31,47.14,10,47,6.87,46.78,1.44,39.74,2,36.23,3.31c-6.37,2.36-12.18,7.55-17,12.25A69.73,69.73,0,0,0,6.93,31.3,52.75,52.75,0,0,0,.51,49.79C-0.18,54.69-1,62.1,4.34,64.67c4.87,2.33,10.57-1.18,14.5-3.84A84.22,84.22,0,0,0,36.18,45c1.27-1.53-1.13-3.66-2.41-2.13" transform="translate(0 0)" fill="#ff141b"/><path d="M177,17.09a44.26,44.26,0,0,1,8.65.88c4,0.82,4.27,4.38,2.18,7.7-1.22,1.93-3.69,3.41-5.55,4.67a90.26,90.26,0,0,1-11.17,6.26c-0.32.16-1.18,0.52-2.39,1q4.43-10.13,8.27-20.52m34.85,30.8a97.6,97.6,0,0,0-38.46-8.8A84.67,84.67,0,0,0,184.09,33c3.59-2.44,8.87-6.25,9.25-11,0.53-6.74-8-8-15.21-7.94q1.29-3.57,2.51-7.16c0.63-1.86-2.21-3.35-2.86-1.43-1,2.92-2,5.83-3.08,8.72-2,.13-3.76.33-4.9,0.47a61.55,61.55,0,0,0-31.95,13.88c-1.51,1.26.33,3.88,1.8,2.66,9.3-7.75,21.59-13.17,33.93-14q-4.19,11.18-9.08,22.07l-0.16.06a97.05,97.05,0,0,0-21.58,4,1.48,1.48,0,0,0-1,1.55c0.32,6.89,13.32,2.15,20.56-.91-1.42,3-2.86,6.08-4.36,9.09-0.88,1.78,2,3.25,2.86,1.43q3-6,5.8-12.2a93.87,93.87,0,0,1,44,8.33,1.52,1.52,0,1,0,1.24-2.77" transform="translate(0 0)" fill="#ff141b"/></svg>
